<svg width="927" height="1313" viewBox="0 0 927 1313" fill="none" xmlns="http://www.w3.org/2000/svg">
<g filter="url(#filter0_di_3058_7699)">
<path d="M57.7687 1120.31C50.9661 1113.53 45.5576 1105.42 41.9234 1096.54L34.3899 1078.12C26.6349 1044.28 11.1251 976.599 37.0203 934.222C62.9154 891.845 130.216 874.769 183.671 849.233C237.644 824.013 276.478 789.542 295.904 743.212C315.33 696.881 312.759 637.11 332.184 590.779C351.61 544.449 390.444 509.978 396.025 455.187C400.83 399.922 372.381 324.337 397.888 281.723C424.171 239.583 504.41 230.414 537.681 192.543C570.434 154.356 554.924 86.6781 547.169 52.8389L539.414 18.9997L912.059 246.71L899.111 267.898C886.164 289.087 860.269 331.464 834.373 373.841C808.478 416.219 782.583 458.596 756.688 500.973C730.793 543.35 704.898 585.727 679.002 628.105C653.107 670.482 627.212 712.859 601.317 755.236C575.422 797.613 549.527 839.991 523.631 882.368C497.736 924.745 627.212 891.845 601.317 934.222C575.422 976.599 627.615 1122.33 549.93 1147C516.93 1229.5 511.837 1353.43 309.43 1261.5L254.399 1239.58C250.091 1237.86 245.629 1236.46 241.132 1235.33C153.494 1213.3 127.225 1189.47 57.7687 1120.31Z" fill="#ACA08C"/>
</g>
<defs>
<filter id="filter0_di_3058_7699" x="0.0601559" y="0.4" width="930.998" height="1312.19" filterUnits="userSpaceOnUse" color-interpolation-filters="sRGB">
<feFlood flood-opacity="0" result="BackgroundImageFix"/>
<feColorMatrix in="SourceAlpha" type="matrix" values="0 0 0 0 0 0 0 0 0 0 0 0 0 0 0 0 0 0 127 0" result="hardAlpha"/>
<feOffset dx="-4"/>
<feGaussianBlur stdDeviation="9.3"/>
<feComposite in2="hardAlpha" operator="out"/>
<feColorMatrix type="matrix" values="0 0 0 0 0 0 0 0 0 0 0 0 0 0 0 0 0 0 0.5 0"/>
<feBlend mode="normal" in2="BackgroundImageFix" result="effect1_dropShadow_3058_7699"/>
<feBlend mode="normal" in="SourceGraphic" in2="effect1_dropShadow_3058_7699" result="shape"/>
<feColorMatrix in="SourceAlpha" type="matrix" values="0 0 0 0 0 0 0 0 0 0 0 0 0 0 0 0 0 0 127 0" result="hardAlpha"/>
<feOffset dx="19" dy="12"/>
<feGaussianBlur stdDeviation="16.1"/>
<feComposite in2="hardAlpha" operator="arithmetic" k2="-1" k3="1"/>
<feColorMatrix type="matrix" values="0 0 0 0 0 0 0 0 0 0 0 0 0 0 0 0 0 0 0.2 0"/>
<feBlend mode="normal" in2="shape" result="effect2_innerShadow_3058_7699"/>
</filter>
</defs>
</svg>
